<?xml version="1.0" standalone="no"?>
<!DOCTYPE svg PUBLIC "-//W3C//DTD SVG 20010904//EN"
 "http://www.w3.org/TR/2001/REC-SVG-20010904/DTD/svg10.dtd">
<svg version="1.0" xmlns="http://www.w3.org/2000/svg"
 width="2250.000000pt" height="2250.000000pt" viewBox="0 0 2250.000000 2250.000000"
 preserveAspectRatio="xMidYMid meet">
<metadata>
Created by potrace 1.11, written by Peter Selinger 2001-2013
</metadata>
<g transform="translate(0.000000,2250.000000) scale(0.100000,-0.100000)"
fill="#000000" stroke="none">
<path d="M11050 22480 c-110 -23 -167 -43 -265 -91 -195 -95 -362 -263 -464
-465 -41 -82 -89 -223 -93 -276 -1 -15 -5 -28 -8 -29 -3 0 -12 -2 -20 -3 -8
-2 -47 -6 -87 -10 -39 -4 -82 -9 -95 -11 -13 -2 -49 -6 -82 -10 -32 -4 -68 -8
-80 -10 -11 -2 -42 -6 -67 -9 -25 -4 -57 -9 -70 -11 -13 -2 -42 -6 -64 -10
-22 -3 -65 -10 -95 -15 -30 -5 -71 -12 -90 -15 -43 -7 -136 -23 -170 -30 -14
-3 -60 -12 -103 -20 -431 -82 -1026 -248 -1477 -412 -52 -19 -99 -36 -105 -37
-5 -2 -19 -7 -30 -11 -11 -5 -112 -45 -225 -90 -353 -142 -783 -344 -1079
-507 -196 -109 -203 -113 -275 -157 -38 -22 -70 -41 -73 -41 -2 0 -28 -15 -56
-34 -29 -18 -101 -64 -162 -101 -140 -86 -479 -315 -483 -326 -2 -5 -8 -9 -13
-9 -6 0 -15 -5 -22 -10 -7 -6 -77 -59 -157 -118 -173 -129 -304 -232 -462
-364 -64 -54 -120 -98 -123 -98 -4 0 -25 13 -48 29 -121 83 -285 143 -457 167
-35 5 -221 5 -245 0 -11 -2 -40 -7 -65 -11 -241 -39 -502 -203 -651 -410 -175
-243 -240 -549 -178 -834 28 -133 103 -299 178 -397 l39 -51 -80 -104 c-101
-131 -241 -327 -349 -489 -93 -138 -259 -398 -259 -405 0 -3 -15 -28 -34 -57
-159 -251 -446 -805 -592 -1147 -25 -58 -54 -124 -64 -146 -91 -195 -272 -701
-384 -1075 -68 -226 -167 -611 -191 -740 -3 -14 -7 -34 -9 -45 -38 -181 -51
-247 -76 -395 -16 -96 -32 -193 -36 -215 -3 -22 -7 -51 -9 -65 -3 -14 -7 -45
-10 -70 -3 -25 -7 -55 -9 -67 -3 -12 -8 -53 -12 -90 -4 -37 -8 -75 -9 -83 -1
-8 -5 -50 -10 -92 -4 -46 -12 -78 -19 -79 -33 -2 -76 -13 -149 -36 -367 -115
-639 -424 -712 -807 -14 -72 -14 -302 0 -381 13 -72 65 -218 106 -295 149
-278 429 -483 731 -536 36 -6 38 -9 39 -43 0 -20 2 -43 4 -52 1 -8 6 -42 9
-75 10 -87 17 -146 21 -174 2 -14 9 -61 15 -106 6 -44 12 -89 14 -100 8 -42
19 -110 22 -134 1 -14 7 -50 13 -80 6 -30 13 -71 16 -90 10 -62 66 -332 92
-445 13 -60 27 -119 29 -130 2 -11 27 -105 55 -210 28 -104 52 -197 54 -205 2
-8 20 -67 40 -130 20 -63 38 -123 40 -132 9 -41 118 -357 181 -523 73 -197
199 -500 263 -638 23 -48 41 -90 41 -92 0 -8 202 -411 256 -513 237 -439 533
-910 792 -1257 4 -5 32 -44 62 -85 30 -41 57 -77 60 -80 3 -3 34 -42 69 -87
l63 -82 -29 -48 c-109 -180 -155 -356 -148 -573 4 -153 7 -174 42 -285 54
-170 134 -299 272 -435 196 -192 435 -292 706 -293 66 0 139 2 163 6 93 12
222 54 321 103 l105 53 105 -87 c237 -196 510 -400 761 -570 74 -50 140 -95
146 -99 5 -5 19 -13 30 -20 10 -6 87 -54 169 -106 366 -231 875 -502 1255
-670 30 -13 78 -34 105 -46 28 -13 64 -28 80 -36 223 -99 749 -288 1080 -388
72 -22 341 -97 362 -102 10 -2 92 -22 183 -44 91 -22 180 -43 197 -46 18 -3
63 -12 100 -21 38 -9 75 -17 83 -19 8 -1 31 -5 50 -9 19 -3 46 -8 60 -11 14
-3 63 -12 110 -20 47 -8 94 -17 105 -19 11 -2 42 -7 68 -10 26 -4 71 -11 99
-16 28 -6 76 -13 106 -16 31 -3 63 -7 72 -9 8 -2 43 -6 75 -10 33 -4 71 -8 85
-11 22 -3 130 -14 178 -18 22 -1 32 -15 32 -43 0 -35 49 -182 85 -255 147
-300 431 -515 759 -575 69 -13 293 -11 366 3 327 62 604 271 753 569 28 56 75
199 83 254 3 20 7 37 9 39 4 5 37 9 110 16 61 6 323 40 395 51 14 2 45 7 70
10 25 3 71 10 102 16 32 6 70 12 85 15 70 12 275 51 308 58 11 3 63 14 115 25
52 11 124 27 160 36 36 9 76 18 90 20 14 2 50 11 80 20 30 9 63 18 72 20 368
84 1002 301 1477 504 274 118 651 298 811 388 20 11 71 39 114 62 43 24 112
62 153 87 41 24 76 44 77 44 6 0 277 167 396 244 342 221 835 585 1049 775 29
26 32 26 62 3 59 -45 201 -99 345 -132 74 -16 245 -18 347 -3 241 35 479 167
636 354 121 144 192 291 232 484 14 65 17 296 5 360 -25 138 -88 303 -147 387
-22 31 -24 44 -6 63 16 19 130 167 169 220 4 5 18 24 31 40 133 171 467 671
587 880 10 17 51 89 92 160 42 72 103 182 137 245 64 119 291 575 291 585 0 3
12 29 26 58 26 53 156 360 201 477 223 573 384 1120 508 1730 18 91 36 181 39
200 3 19 8 46 11 60 2 13 7 40 10 60 3 20 8 47 10 60 3 14 8 43 10 65 3 22 10
67 15 100 5 33 11 78 14 100 3 22 10 73 16 113 6 40 13 103 16 140 4 37 8 74
9 82 2 8 4 25 4 36 1 18 11 23 64 34 265 52 527 240 674 485 99 165 143 329
143 535 0 313 -114 568 -347 782 -124 112 -333 216 -490 243 -30 5 -43 12 -44
23 0 10 -2 28 -4 42 -1 14 -6 56 -10 93 -3 37 -8 76 -10 85 -1 9 -6 44 -9 77
-4 33 -13 101 -21 150 -7 50 -17 110 -20 135 -3 25 -8 52 -10 60 -2 8 -6 31
-9 50 -3 19 -8 49 -11 65 -3 17 -10 57 -16 90 -19 115 -71 365 -100 480 -5 22
-11 49 -14 60 -20 108 -130 498 -207 740 -81 254 -217 629 -283 780 -7 17 -38
90 -69 163 -264 620 -638 1289 -1043 1865 -113 160 -243 336 -309 418 -30 36
-54 71 -54 78 0 6 10 28 23 49 49 78 108 229 122 309 4 21 9 49 12 63 9 45 10
273 2 305 -4 16 -10 46 -13 65 -9 61 -47 172 -83 245 -180 361 -538 587 -928
585 -189 0 -309 -28 -473 -107 l-93 -45 -49 41 c-28 22 -74 60 -102 84 -29 23
-55 44 -58 47 -11 12 -191 151 -305 237 -320 240 -796 550 -1110 723 -215 119
-288 157 -472 249 -192 96 -374 180 -530 247 -18 8 -48 20 -65 28 -18 8 -103
42 -188 76 -85 33 -164 65 -175 70 -30 14 -287 103 -400 139 -55 18 -109 36
-120 41 -11 5 -36 13 -55 18 -19 6 -107 31 -195 57 -139 41 -178 52 -255 70
-8 2 -60 16 -115 30 -87 22 -279 67 -340 79 -11 3 -90 19 -175 36 -135 27
-359 66 -427 75 -13 2 -42 6 -65 10 -24 4 -54 8 -68 10 -14 2 -43 6 -65 9 -22
3 -62 8 -90 11 -27 3 -61 8 -75 10 -14 2 -56 7 -95 11 -74 7 -107 12 -109 16
-1 2 -10 39 -21 83 -60 263 -240 507 -480 651 -51 31 -169 82 -238 104 -131
41 -353 50 -497 20z m344 -414 c129 -27 273 -123 365 -243 39 -52 84 -150 101
-223 89 -379 -203 -757 -590 -763 -122 -1 -195 15 -303 69 -53 26 -138 92
-168 129 -10 11 -29 33 -43 50 -31 36 -89 153 -106 215 -15 52 -19 213 -7 285
12 77 87 221 151 291 101 111 251 188 391 201 33 3 61 6 63 8 2 2 111 -12 146
-19z m-1139 -913 c46 -156 164 -345 282 -453 340 -311 824 -372 1220 -155 227
125 420 358 489 591 16 56 20 61 43 59 57 -5 163 -17 179 -19 9 -2 44 -7 77
-10 33 -4 71 -9 85 -11 14 -2 44 -7 68 -10 24 -3 53 -7 65 -10 12 -2 40 -7 62
-10 170 -23 517 -92 785 -157 69 -17 132 -32 140 -34 8 -2 42 -11 75 -20 33
-9 65 -17 70 -18 17 -4 98 -27 145 -41 495 -151 704 -225 1090 -387 308 -129
699 -319 960 -466 25 -14 79 -44 120 -67 174 -97 725 -446 750 -474 3 -3 28
-22 55 -40 72 -50 354 -259 391 -290 16 -14 45 -37 64 -51 38 -28 210 -171
210 -174 0 -1 -26 -54 -58 -117 -82 -160 -111 -275 -117 -454 -16 -500 334
-943 829 -1046 89 -19 283 -27 351 -14 157 28 264 65 374 126 29 17 57 27 61
22 15 -16 168 -221 256 -343 166 -229 406 -599 529 -815 297 -521 547 -1050
732 -1555 103 -281 264 -798 308 -990 2 -12 22 -92 51 -210 2 -8 13 -58 24
-110 33 -149 51 -242 66 -330 3 -14 9 -47 14 -75 5 -27 12 -65 15 -82 3 -18 7
-45 10 -60 8 -52 24 -158 29 -198 3 -22 10 -78 16 -125 6 -47 13 -96 15 -110
2 -14 6 -55 10 -91 l5 -66 -77 -28 c-362 -127 -620 -429 -688 -804 -17 -93
-12 -332 8 -411 100 -383 351 -652 720 -770 l38 -12 -6 -66 c-3 -37 -8 -78
-10 -92 -3 -14 -7 -52 -10 -85 -4 -33 -8 -67 -10 -75 -2 -8 -7 -39 -10 -69 -4
-30 -8 -61 -10 -70 -2 -15 -10 -62 -21 -133 -15 -98 -42 -246 -66 -363 -11
-55 -22 -111 -25 -125 -2 -14 -8 -41 -13 -60 -5 -19 -11 -46 -14 -60 -30 -149
-132 -532 -206 -769 -49 -159 -157 -471 -205 -591 -18 -47 -45 -114 -59 -150
-117 -303 -381 -858 -535 -1124 -28 -49 -51 -91 -51 -93 0 -2 -48 -83 -106
-181 -189 -316 -476 -736 -680 -997 l-65 -82 -72 38 c-162 84 -316 119 -512
115 -162 -4 -286 -35 -430 -106 -143 -71 -262 -167 -370 -301 -70 -87 -147
-246 -180 -373 -38 -145 -40 -347 -6 -497 14 -62 58 -184 83 -228 11 -20 30
-53 41 -75 l22 -38 -49 -42 c-276 -234 -747 -573 -1101 -792 -186 -116 -303
-184 -540 -314 -351 -194 -947 -459 -1362 -606 -254 -90 -652 -213 -838 -260
-27 -7 -362 -86 -375 -89 -8 -2 -35 -8 -60 -14 -25 -5 -56 -12 -70 -14 -28 -5
-173 -34 -205 -41 -11 -2 -40 -7 -65 -11 -25 -4 -54 -9 -65 -11 -10 -2 -35 -6
-55 -9 -20 -3 -45 -7 -56 -9 -12 -2 -45 -7 -75 -11 -30 -4 -56 -8 -59 -10 -3
-1 -30 -6 -60 -9 -30 -4 -125 -15 -210 -25 -85 -10 -158 -16 -162 -12 -3 3
-16 35 -28 71 -70 209 -209 392 -399 522 -242 166 -545 222 -831 153 -14 -3
-35 -8 -48 -11 -33 -7 -114 -40 -184 -75 -186 -94 -365 -273 -458 -459 -12
-25 -35 -81 -50 -125 -22 -63 -32 -80 -46 -79 -29 2 -151 14 -187 19 -18 2
-52 7 -77 10 -82 10 -195 26 -225 31 -16 3 -39 7 -50 9 -84 12 -119 18 -185
30 -41 8 -91 17 -110 20 -204 33 -697 153 -1010 246 -297 89 -765 256 -966
345 -16 7 -82 35 -145 62 -173 75 -216 95 -454 213 -455 226 -819 441 -1265
747 -159 109 -513 378 -656 498 l-60 51 47 87 c62 116 104 250 117 370 48 458
-193 885 -607 1073 -146 67 -285 94 -456 88 -66 -2 -138 -7 -159 -11 -78 -12
-196 -53 -283 -97 l-88 -44 -136 181 c-75 99 -156 210 -180 246 -24 36 -47 67
-50 70 -15 13 -268 404 -361 560 -97 160 -139 234 -240 420 -126 231 -308 615
-417 880 -29 69 -56 134 -61 145 -48 101 -240 661 -308 900 -46 158 -133 490
-137 520 -1 11 -7 40 -14 65 -20 83 -60 274 -66 315 -4 22 -8 48 -11 58 -3 10
-7 32 -10 50 -2 18 -8 55 -14 82 -12 61 -16 89 -29 180 -6 39 -13 86 -15 105
-26 178 -30 215 -41 336 -6 66 -5 81 7 81 7 0 47 12 88 28 136 52 233 113 343
215 388 363 442 950 126 1380 -122 167 -313 306 -511 371 -37 12 -66 24 -64
28 2 3 7 40 11 81 4 41 8 77 10 80 1 3 6 41 10 85 4 44 8 82 10 85 1 3 6 30 9
61 4 31 9 67 11 80 3 13 7 38 9 54 13 88 55 327 81 450 8 39 16 81 19 95 2 14
15 72 29 130 14 58 28 116 30 130 18 96 130 490 209 735 34 105 62 192 63 195
0 3 13 39 29 80 15 41 48 129 73 195 56 150 176 439 237 568 25 55 46 101 46
103 0 6 214 433 240 479 12 22 37 67 55 100 107 201 299 515 461 757 83 124
157 232 163 240 6 7 60 78 119 158 139 188 123 175 170 151 39 -20 148 -58
191 -66 12 -2 30 -6 39 -9 41 -12 105 -17 207 -17 326 -1 636 155 827 414 51
70 59 82 97 151 33 60 73 171 91 256 15 68 18 117 15 245 -4 193 -16 250 -93
417 l-35 78 24 22 c14 13 49 43 79 68 30 25 64 53 75 62 88 74 325 256 467
360 544 395 1081 708 1723 1008 363 169 875 360 1310 489 304 90 779 205 975
236 19 3 69 12 110 20 41 8 89 16 105 19 17 2 46 7 65 10 31 5 213 31 295 42
39 6 94 12 175 20 36 3 66 8 68 9 14 13 37 -8 47 -42z m-6222 -2256 c169 -62
290 -173 367 -340 29 -62 35 -85 49 -184 24 -169 -43 -363 -171 -494 -216
-223 -547 -255 -805 -78 -161 111 -264 306 -264 502 0 92 8 137 36 214 81 225
277 383 510 410 28 3 51 6 52 7 11 9 174 -18 226 -37z m14655 19 c12 -3 31 -8
41 -10 37 -8 137 -60 186 -96 274 -201 334 -592 134 -866 -83 -113 -216 -203
-354 -239 -60 -16 -225 -23 -263 -11 -11 4 -29 8 -39 10 -45 9 -136 50 -189
85 -117 75 -218 214 -260 356 -25 87 -23 260 4 341 82 245 280 412 521 441 25
3 47 6 48 7 4 3 148 -12 171 -18z m-17488 -7064 c408 -110 592 -582 365 -937
-216 -338 -692 -386 -970 -96 -240 249 -234 637 13 876 94 91 230 157 348 172
27 3 50 6 51 7 5 4 163 -14 193 -22z m20409 3 c139 -36 270 -123 351 -233 130
-177 159 -396 81 -598 -119 -305 -456 -467 -766 -367 -223 71 -399 277 -431
503 -44 314 156 611 466 694 72 19 227 20 299 1z m-17524 -7077 c22 -6 48 -11
58 -13 10 -2 42 -15 72 -29 189 -86 325 -264 363 -471 9 -54 6 -179 -7 -235
-21 -89 -84 -209 -146 -277 -51 -56 -179 -153 -202 -153 -6 0 -23 -6 -39 -14
-16 -8 -60 -21 -99 -29 -291 -59 -591 102 -700 377 -15 38 -29 80 -31 93 -2
12 -6 35 -9 51 -7 32 -7 149 -1 171 3 9 7 33 10 54 21 138 152 317 292 399
130 76 305 106 439 76z m14598 -5 c120 -27 256 -107 322 -188 17 -20 38 -46
48 -58 10 -11 31 -48 48 -82 112 -228 80 -494 -82 -682 -326 -376 -932 -243
-1074 236 -28 95 -26 254 4 345 41 127 101 219 190 294 153 129 355 179 544
135z m-7320 -3117 c223 -35 433 -230 492 -456 82 -312 -87 -633 -390 -743
-131 -47 -224 -50 -390 -13 -118 26 -292 162 -358 281 -25 44 -57 119 -63 150
-32 144 -29 237 11 361 93 292 388 469 698 420z"/>
<path d="M11177 19348 c-210 -15 -413 -94 -578 -224 -47 -38 -152 -151 -194
-209 -80 -111 -154 -282 -171 -390 -3 -25 -10 -48 -15 -51 -8 -5 -79 -17 -169
-29 -14 -2 -41 -7 -60 -10 -19 -4 -46 -9 -60 -12 -14 -2 -44 -8 -68 -14 -23
-5 -59 -12 -80 -15 -75 -11 -484 -115 -643 -163 -216 -66 -541 -181 -663 -235
-29 -13 -104 -46 -241 -105 -103 -44 -454 -224 -580 -297 -66 -38 -128 -73
-137 -79 -219 -125 -806 -538 -888 -625 -3 -3 -30 -25 -60 -50 -192 -157 -485
-437 -680 -649 -52 -57 -102 -112 -112 -122 -21 -22 -204 -243 -243 -293 -16
-21 -35 -44 -40 -50 -6 -6 -38 -49 -73 -96 -35 -47 -71 -94 -80 -105 -58 -71
-412 -621 -412 -641 0 -3 -8 -18 -18 -32 -51 -73 -238 -444 -336 -665 -36 -82
-66 -151 -66 -154 0 -3 -7 -19 -15 -36 -44 -95 -179 -481 -240 -687 -14 -50
-84 -311 -89 -335 -6 -26 -48 -213 -53 -235 -10 -40 -10 -43 -17 -82 -3 -21
-10 -57 -15 -80 -5 -24 -12 -61 -15 -83 -4 -23 -8 -51 -11 -64 -2 -13 -7 -42
-9 -65 -3 -22 -8 -52 -11 -66 -4 -23 -31 -244 -40 -340 -23 -229 -29 -387 -30
-695 0 -278 9 -576 20 -630 2 -11 7 -51 10 -90 8 -100 14 -156 19 -190 3 -16
8 -52 11 -80 4 -27 8 -61 10 -75 3 -14 7 -43 10 -65 3 -22 12 -76 20 -120 8
-44 17 -93 19 -110 75 -430 278 -1109 434 -1456 11 -24 39 -89 62 -144 55
-131 229 -478 315 -630 236 -417 579 -902 854 -1210 144 -161 192 -213 316
-338 135 -137 294 -286 401 -378 28 -24 68 -59 90 -78 50 -43 257 -208 309
-247 22 -16 42 -31 45 -34 12 -13 246 -175 365 -252 181 -117 187 -121 210
-133 11 -6 63 -36 115 -67 240 -141 540 -291 810 -406 536 -227 1140 -399
1709 -487 51 -7 94 -15 95 -17 1 -2 14 -51 29 -111 47 -191 132 -342 272 -483
233 -236 554 -344 890 -300 345 46 670 298 808 626 34 82 62 175 69 232 5 40
9 41 103 53 66 9 214 35 315 57 52 11 108 22 124 25 84 14 368 89 576 151 467
140 1016 378 1465 635 1168 669 2125 1640 2777 2817 75 135 203 390 257 510
18 41 42 95 53 119 11 24 28 67 39 95 11 28 27 65 34 81 83 182 253 716 320
1005 14 58 27 114 30 125 5 19 28 138 40 200 20 106 56 319 61 365 3 30 8 64
10 75 2 11 6 47 9 82 3 34 7 70 9 80 2 10 7 56 11 103 4 47 9 98 10 114 24
201 24 889 1 1131 -2 17 -6 66 -10 110 -29 335 -97 738 -182 1080 -20 77 -37
147 -39 155 -8 38 -69 239 -114 378 -144 435 -345 890 -585 1317 -42 74 -137
232 -178 293 -26 41 -48 75 -48 77 0 8 -166 243 -263 375 -106 142 -247 320
-283 357 -12 12 -29 31 -37 43 -51 73 -448 485 -588 611 -15 13 -44 40 -65 59
-427 392 -1006 790 -1554 1072 -216 110 -682 318 -715 318 -5 0 -21 6 -35 13
-31 16 -317 114 -470 161 -193 59 -541 145 -735 181 -69 12 -328 55 -336 55
-5 0 -9 8 -9 18 0 40 -43 177 -79 257 -73 157 -193 304 -335 409 -137 102
-336 178 -502 191 -38 4 -73 7 -79 9 -5 1 -54 -2 -108 -6z m285 -453 c176 -60
319 -208 385 -397 29 -85 36 -235 14 -328 -24 -103 -89 -218 -166 -296 -129
-130 -282 -191 -464 -186 -336 9 -609 301 -597 637 2 50 6 97 8 105 2 8 8 31
12 50 18 79 80 183 157 262 41 43 78 78 81 78 4 0 28 13 55 29 144 89 341 106
515 46z m-1191 -933 c117 -348 450 -627 813 -682 392 -59 762 89 1005 405 56
73 134 224 157 302 9 32 17 59 18 60 1 1 42 -4 91 -13 50 -8 106 -17 125 -20
261 -41 778 -179 1080 -287 858 -309 1621 -766 2305 -1381 109 -99 355 -343
450 -447 33 -36 78 -85 100 -110 22 -24 72 -82 110 -129 38 -47 72 -87 75 -90
15 -13 206 -268 282 -375 378 -538 693 -1161 893 -1770 47 -143 94 -295 100
-322 2 -10 14 -58 28 -108 14 -49 39 -153 56 -230 32 -145 34 -154 51 -245 6
-30 12 -64 14 -75 2 -11 7 -42 11 -70 5 -27 9 -52 10 -55 0 -3 5 -32 9 -65 4
-32 9 -66 11 -75 1 -8 6 -42 9 -75 4 -33 9 -71 11 -85 4 -29 16 -146 20 -205
16 -225 19 -318 19 -560 0 -248 -7 -457 -19 -557 -3 -29 -11 -122 -20 -223 -2
-16 -6 -49 -9 -72 -3 -24 -8 -62 -11 -85 -3 -24 -10 -68 -15 -98 -5 -30 -11
-68 -13 -85 -3 -16 -10 -58 -16 -92 -6 -35 -13 -73 -15 -85 -8 -46 -38 -184
-46 -218 -5 -19 -11 -46 -14 -60 -16 -93 -111 -426 -177 -625 -49 -145 -172
-464 -225 -582 -303 -675 -698 -1282 -1193 -1833 -106 -119 -381 -394 -486
-487 -39 -34 -86 -76 -105 -93 -86 -77 -387 -314 -510 -401 -371 -265 -824
-524 -1200 -689 -52 -23 -108 -48 -125 -55 -244 -111 -750 -275 -1085 -354
-186 -43 -479 -99 -544 -103 l-38 -3 -24 68 c-111 304 -382 560 -681 643 -185
51 -396 55 -563 10 -109 -30 -270 -106 -350 -166 -71 -52 -182 -162 -217 -214
-16 -23 -33 -46 -39 -53 -19 -20 -91 -165 -114 -231 l-23 -63 -36 6 c-70 11
-143 24 -236 41 -800 147 -1670 486 -2355 919 -240 151 -662 455 -730 525 -3
3 -32 27 -65 55 -128 106 -237 207 -420 390 -223 222 -251 252 -449 485 -11
14 -46 57 -76 95 -30 39 -57 72 -60 75 -3 3 -17 21 -30 40 -13 19 -27 37 -30
40 -11 9 -155 212 -237 335 -88 132 -235 375 -303 500 -48 87 -220 431 -220
439 0 2 -15 37 -34 78 -18 40 -44 98 -56 128 -12 30 -28 69 -35 85 -63 144
-227 634 -250 745 -2 8 -8 27 -14 43 -6 15 -8 27 -6 27 2 0 0 11 -5 25 -5 14
-23 85 -40 159 -38 168 -36 156 -65 311 -23 127 -28 157 -40 240 -3 22 -8 54
-10 70 -3 17 -7 53 -10 80 -4 28 -8 61 -10 75 -9 61 -18 160 -31 355 -16 235
-9 904 10 1025 3 14 7 61 11 105 3 44 8 87 10 95 2 8 7 42 10 75 10 95 14 124
30 215 8 47 17 103 21 125 3 22 9 58 14 80 5 22 12 56 15 75 3 19 12 63 20 96
8 34 16 73 19 86 8 47 87 345 112 423 14 44 27 87 29 95 20 84 151 441 240
650 60 144 220 468 296 603 22 38 39 71 39 73 0 8 177 294 250 404 161 242
395 551 535 706 5 6 41 47 80 90 73 82 413 426 500 505 63 57 309 266 354 299
18 14 56 43 84 65 210 164 560 396 812 538 231 129 581 298 770 372 39 15 108
42 155 60 102 40 357 128 455 156 115 34 398 109 430 115 17 2 46 9 66 14 44
12 338 68 399 76 25 3 47 8 50 10 16 17 37 -11 61 -84z m1169 -13201 c136 -43
271 -149 344 -269 19 -32 47 -93 62 -137 63 -186 21 -421 -103 -573 -73 -90
-159 -153 -264 -194 -87 -35 -148 -45 -250 -42 -387 10 -673 388 -580 764 12
46 27 95 35 109 49 95 68 122 131 186 88 89 212 155 335 179 58 11 226 -2 290
-23z"/>
<path d="M11009 14996 c-2 -2 -42 -7 -89 -10 -47 -4 -96 -8 -110 -10 -14 -3
-44 -7 -67 -10 -24 -3 -62 -9 -85 -12 -38 -5 -155 -27 -213 -41 -11 -2 -29 -6
-41 -8 -11 -3 -69 -18 -130 -34 -389 -104 -732 -258 -1079 -486 -115 -75 -325
-230 -345 -254 -3 -3 -36 -33 -75 -66 -178 -154 -421 -418 -547 -596 -9 -13
-42 -59 -72 -102 -31 -43 -56 -81 -56 -83 0 -3 -13 -25 -30 -49 -16 -24 -30
-47 -30 -51 0 -4 -6 -15 -14 -23 -29 -34 -148 -266 -215 -418 -113 -259 -229
-655 -256 -873 -4 -30 -8 -57 -10 -60 -6 -10 -22 -150 -32 -290 -14 -178 -7
-542 12 -685 2 -16 7 -55 10 -85 4 -30 9 -63 11 -74 2 -11 6 -36 9 -56 6 -42
8 -52 29 -150 16 -78 43 -187 69 -280 13 -46 68 -205 123 -351 32 -89 163
-356 209 -429 14 -22 25 -42 25 -45 0 -14 158 -253 232 -352 408 -542 928
-953 1534 -1211 120 -52 343 -133 401 -147 10 -3 61 -16 113 -31 52 -14 106
-28 120 -30 13 -3 56 -12 95 -20 38 -8 84 -17 100 -19 17 -3 41 -7 55 -10 14
-3 48 -8 75 -10 28 -3 59 -7 70 -10 127 -27 744 -27 895 0 14 2 63 9 110 15
47 6 146 25 221 40 114 24 170 39 324 84 6 1 30 8 55 15 95 27 381 145 520
215 484 244 865 548 1231 983 82 98 289 392 289 411 0 5 5 13 12 20 35 35 214
392 273 542 20 52 40 104 45 115 22 51 110 346 124 415 3 14 14 66 25 115 11
50 27 144 36 210 9 66 18 134 20 150 28 204 23 669 -10 870 -3 17 -7 53 -11
80 -4 41 -44 247 -59 305 -2 8 -8 35 -14 60 -33 146 -115 386 -195 573 -381
889 -1138 1627 -2036 1985 -237 95 -533 182 -700 207 -14 2 -50 8 -80 14 -65
12 -104 17 -185 26 -33 4 -73 9 -90 12 -36 6 -590 14 -596 9z"/>
</g>
</svg>
