<?xml version="1.0" encoding="utf-8"?>
<!-- Generator: Adobe Illustrator 19.0.0, SVG Export Plug-In . SVG Version: 6.00 Build 0)  -->
<svg version="1.1" id="Layer_1" xmlns="http://www.w3.org/2000/svg" xmlns:xlink="http://www.w3.org/1999/xlink" x="0px" y="0px"
	 viewBox="0 0 612 792" style="enable-background:new 0 0 612 792;" xml:space="preserve">
<style type="text/css">
	.st0{fill:#2F9AA7;}
	.st1{fill:#00434B;}
	.st2{fill:none;}
	.st3{clip-path:url(#SVGID_2_);}
	.st4{clip-path:url(#SVGID_4_);fill:#2F9AA7;}
	.st5{clip-path:url(#SVGID_4_);fill:#00434B;}
	.st6{clip-path:url(#SVGID_4_);}
</style>
<circle id="XMLID_4_" class="st0" cx="306" cy="396" r="90">
<animate  fill="remove" restart="always" calcMode="linear" to="125" repeatCount="indefinite" additive="replace" accumulate="none" begin="0s" dur="1.3s" attributeName="r" from="80">
	</animate>
<animate  fill="remove" restart="always" calcMode="linear" to="0" repeatCount="indefinite" additive="replace" accumulate="none" begin="0s" dur="1.3s" attributeName="opacity" from="1">
	</animate>
</circle>
<circle class="st1" cx="306" cy="396" r="90">
<animate  fill="remove" restart="always" calcMode="linear" to="105" repeatCount="indefinite" additive="replace" accumulate="none" begin="0s" dur="1.3s" attributeName="r" from="80">
	</animate>
<animate  fill="remove" restart="always" calcMode="linear" to="0" repeatCount="indefinite" additive="replace" accumulate="none" begin="0s" dur="1.3s" attributeName="opacity" from="1">
	</animate>
</circle>
<circle class="st0" cx="306" cy="396" r="90"/>
<g id="XMLID_6_">
	<path id="XMLID_7_" class="st2" d="M319.9,560.4c-2.2-5.5-7.6-9.4-13.9-9.4s-11.7,3.9-13.9,9.4c-0.7,1.7-1.1,3.6-1.1,5.6
		c0,1.5,0.2,3,0.7,4.4c1.9,6.1,7.6,10.6,14.3,10.6s12.5-4.5,14.3-10.6c0.4-1.4,0.7-2.9,0.7-4.4C321,564,320.6,562.1,319.9,560.4z"/>
	<path id="XMLID_19_" class="st2" d="M291.9,231.6c2.1,5.8,7.6,10,14.1,10s12-4.2,14.1-10c0.6-1.6,0.9-3.3,0.9-5
		c0-1.8-0.3-3.4-0.9-5c-2.1-5.8-7.6-10-14.1-10s-12.1,4.2-14.1,10c-0.6,1.6-0.9,3.2-0.9,5C291,228.3,291.3,230,291.9,231.6z"/>
	<path id="XMLID_20_" class="st2" d="M330.2,232.8c-2.8,10.8-12.6,18.8-24.2,18.8s-21.5-8-24.2-18.8C202.1,244.5,141,313.1,141,396
		c0,83,61.2,151.6,140.9,163.2c2.9-10.5,12.6-18.2,24.1-18.2s21.1,7.7,24.1,18.2C409.8,547.6,471,479,471,396
		C471,313.1,409.9,244.5,330.2,232.8z"/>
	<path id="XMLID_23_" class="st0" d="M330.7,222.7c-1.8-12-12.2-21.2-24.7-21.2s-22.9,9.2-24.7,21.2c-84.9,12-150.3,85-150.3,173.3
		c0,88.2,65.3,161.2,150.2,173.2c1.6,12.3,12.1,21.8,24.8,21.8s23.2-9.5,24.8-21.8c84.9-12,150.2-85,150.2-173.2
		C481,307.7,415.7,234.8,330.7,222.7z M306,211.6c6.5,0,12.1,4.2,14.1,10c0.6,1.6,0.9,3.2,0.9,5s-0.3,3.5-0.9,5
		c-2.1,5.8-7.6,10-14.1,10s-12-4.2-14.1-10c-0.6-1.6-0.9-3.3-0.9-5c0-1.8,0.3-3.4,0.9-5C293.9,215.8,299.5,211.6,306,211.6z
		 M306,581c-6.7,0-12.5-4.5-14.3-10.6c-0.4-1.4-0.7-2.9-0.7-4.4c0-2,0.4-3.9,1.1-5.6c2.2-5.5,7.6-9.4,13.9-9.4s11.7,3.9,13.9,9.4
		c0.7,1.7,1.1,3.6,1.1,5.6c0,1.5-0.2,3-0.7,4.4C318.5,576.5,312.7,581,306,581z M330.1,559.2c-2.9-10.5-12.6-18.2-24.1-18.2
		s-21.1,7.7-24.1,18.2C202.2,547.6,141,479,141,396c0-82.9,61.1-151.5,140.8-163.2c2.8,10.8,12.6,18.8,24.2,18.8s21.5-8,24.2-18.8
		C409.9,244.5,471,313.1,471,396C471,479,409.8,547.6,330.1,559.2z"/>
	
		<animateTransform  type="rotate" fill="remove" restart="always" calcMode="linear" to="0 306 396" repeatCount="indefinite" additive="replace" accumulate="none" begin="0s" dur="15" attributeName="transform" from="360 306 396">
		</animateTransform>
</g>
<g id="XMLID_2_">
	<path id="XMLID_3_" class="st2" d="M123,240.8c1.5,0.5,3.2,0.8,4.9,0.8c8.3,0,15-6.7,15-15c0-2-0.4-3.8-1.1-5.6
		c-1.3-3.2-3.6-5.9-6.6-7.5c-2.2-1.2-4.7-1.9-7.3-1.9c-8.3,0-15,6.7-15,15c0,2.9,0.9,5.7,2.3,8C117,237.4,119.7,239.6,123,240.8z"/>
	<path id="XMLID_56_" class="st2" d="M66.4,409.9c5.6-2.2,9.5-7.6,9.5-13.9s-3.9-11.7-9.5-13.9c-1.7-0.7-3.6-1.1-5.5-1.1
		c-1.6,0-3.1,0.2-4.5,0.7c-6.1,1.9-10.5,7.6-10.5,14.3s4.4,12.4,10.5,14.3c1.4,0.4,2.9,0.7,4.5,0.7C62.9,411,64.7,410.6,66.4,409.9z
		"/>
	<path id="XMLID_57_" class="st2" d="M144.2,573.2c1.2-2.1,1.8-4.6,1.8-7.2c0-8.3-6.7-15-15-15c-2.5,0-4.8,0.6-6.8,1.7
		c-3.1,1.6-5.5,4.1-6.9,7.3c-0.8,1.8-1.3,3.9-1.3,6c0,8.3,6.7,15,15,15c2,0,3.9-0.4,5.7-1.1C139.9,578.6,142.5,576.2,144.2,573.2z"
		/>
	<path id="XMLID_58_" class="st2" d="M468.1,219c-1.3,2.3-2.1,4.9-2.1,7.7c0.1,8.3,6.9,14.9,15.1,14.9c2.5,0,4.9-0.7,7-1.8
		c3-1.6,5.4-4.3,6.7-7.5c0.7-1.8,1.1-3.7,1.1-5.8c-0.1-8.3-6.9-14.9-15.1-14.9c-1.8,0-3.5,0.4-5.1,0.9
		C472.5,213.7,469.8,216,468.1,219z"/>
	<path id="XMLID_59_" class="st2" d="M292,156.4c2.2,5.6,7.6,9.6,14,9.6s11.8-4,14-9.6c0.7-1.7,1-3.5,1-5.4c0-1.6-0.3-3.1-0.7-4.6
		c-1.9-6-7.6-10.4-14.3-10.4s-12.3,4.4-14.3,10.4c-0.5,1.4-0.7,3-0.7,4.6C291,152.9,291.4,154.7,292,156.4z"/>
	<path id="XMLID_60_" class="st2" d="M320,635.6c-2.2-5.6-7.6-9.6-14-9.6s-11.8,4-14,9.6c-0.7,1.7-1,3.5-1,5.4
		c0,1.6,0.3,3.1,0.7,4.6c1.9,6,7.6,10.4,14.3,10.4s12.3-4.4,14.3-10.4c0.5-1.4,0.7-3,0.7-4.6C321,639.1,320.6,637.3,320,635.6z"/>
	<path id="XMLID_61_" class="st2" d="M526,396c0-11.7,8-21.5,18.8-24.2c-4.7-46.6-22.7-89.3-50.2-124.2c-3.9,2.5-8.6,4-13.6,4
		c-13.8,0-25-11.2-25-25c0-5.3,1.7-10.2,4.5-14.2c-35.9-30.3-80.9-50.2-130.2-55.1C327.5,168,317.7,176,306,176s-21.5-8-24.2-18.8
		c-50.3,5-96,25.6-132.3,56.9c2.1,3.7,3.4,8,3.4,12.5c0,13.8-11.2,25-25,25c-4.1,0-8-1-11.4-2.8c-26.9,34.7-44.6,76.9-49.2,123
		C78.1,374.6,86,384.4,86,396s-7.9,21.4-18.7,24.2c4.7,46.8,22.8,89.7,50.5,124.6c3.8-2.4,8.4-3.8,13.3-3.8c13.8,0,25,11.2,25,25
		c0,5.1-1.6,9.9-4.2,13.9c35.9,30.1,80.7,50,130,54.9C284.5,624,294.3,616,306,616s21.5,8,24.2,18.8c49.2-4.9,94.1-24.8,130-54.9
		c-2.7-4-4.2-8.7-4.2-13.9c0-13.8,11.2-25,25-25c4.9,0,9.4,1.4,13.3,3.8c27.7-35,45.8-77.8,50.5-124.6C534,417.5,526,407.7,526,396z
		"/>
	<path id="XMLID_62_" class="st2" d="M555.6,381.7c-1.4-0.5-3-0.7-4.6-0.7c-1.9,0-3.7,0.4-5.4,1c-5.6,2.2-9.6,7.6-9.6,14
		s4,11.8,9.6,14c1.7,0.7,3.5,1,5.4,1c1.6,0,3.1-0.3,4.6-0.7c6-1.9,10.4-7.6,10.4-14.3C566,389.3,561.6,383.7,555.6,381.7z"/>
	<path id="XMLID_63_" class="st2" d="M487.8,552.7c-2-1-4.4-1.7-6.8-1.7c-8.3,0-15,6.7-15,15c0,2.6,0.7,5.1,1.8,7.2
		c1.6,3,4.3,5.4,7.5,6.7c1.7,0.7,3.7,1.1,5.7,1.1c8.3,0,15-6.7,15-15c0-2.2-0.5-4.2-1.3-6C493.3,556.8,490.9,554.2,487.8,552.7z"/>
	<path id="XMLID_66_" class="st0" d="M554.8,371.3c-4.8-49.2-23.9-94.1-53-130.8c2.7-4,4.2-8.8,4.2-13.9c0-13.8-11.2-25-25-25
		c-4.9,0-9.4,1.4-13.3,3.8c-37.7-32-85-53.1-137-58.2c-1.8-12-12.2-21.2-24.7-21.2s-22.9,9.2-24.7,21.2
		c-52.7,5.2-100.5,26.7-138.4,59.4c-4.2-3.1-9.4-5-15-5c-13.8,0-25,11.2-25,25c0,6.1,2.2,11.7,5.8,16C80.4,278.8,62,323,57.2,371.3
		c-12.1,1.8-21.3,12.2-21.3,24.7s9.3,22.9,21.3,24.7c4.8,49.3,24,94.4,53.2,131c-2.8,4-4.5,8.9-4.5,14.2c0,13.8,11.2,25,25,25
		c5,0,9.7-1.5,13.6-4.1c37.6,31.8,84.8,52.8,136.6,57.8c1.8,12,12.2,21.2,24.7,21.2s22.9-9.2,24.7-21.2c51.8-5.1,99-26,136.6-57.8
		c3.9,2.6,8.6,4.1,13.6,4.1c13.8,0,25-11.2,25-25c0-5.3-1.7-10.2-4.5-14.2c29.3-36.7,48.4-81.8,53.2-131c12-1.8,21.2-12.2,21.2-24.7
		S566.8,373.1,554.8,371.3z M480.9,211.6c8.3-0.1,15.1,6.6,15.1,14.9c0,2.1-0.4,4-1.1,5.8c-1.3,3.2-3.7,5.9-6.7,7.5
		c-2.1,1.1-4.5,1.8-7,1.8c-8.3,0.1-15.1-6.6-15.1-14.9c0-2.8,0.7-5.5,2.1-7.7c1.7-3,4.5-5.3,7.7-6.5
		C477.4,211.9,479.1,211.6,480.9,211.6z M306,136c6.7,0,12.3,4.4,14.3,10.4c0.5,1.4,0.7,3,0.7,4.6c0,1.9-0.4,3.7-1,5.4
		c-2.2,5.6-7.6,9.6-14,9.6s-11.8-4-14-9.6c-0.7-1.7-1-3.5-1-5.4c0-1.6,0.3-3.1,0.7-4.6C293.7,140.4,299.3,136,306,136z M112.8,226.6
		c0-8.3,6.7-15,15-15c2.7,0,5.2,0.7,7.3,1.9c3,1.7,5.3,4.3,6.6,7.5c0.7,1.7,1.1,3.6,1.1,5.6c0,8.3-6.7,15-15,15
		c-1.7,0-3.3-0.3-4.9-0.8c-3.3-1.1-6-3.3-7.8-6.2C113.7,232.2,112.8,229.5,112.8,226.6z M56.4,410.3c-6.1-1.9-10.5-7.6-10.5-14.3
		s4.4-12.4,10.5-14.3c1.4-0.4,2.9-0.7,4.5-0.7c1.9,0,3.8,0.4,5.5,1.1c5.6,2.2,9.5,7.6,9.5,13.9s-3.9,11.7-9.5,13.9
		c-1.7,0.7-3.6,1.1-5.5,1.1C59.3,411,57.8,410.8,56.4,410.3z M131,581c-8.3,0-15-6.7-15-15c0-2.2,0.5-4.2,1.3-6
		c1.4-3.2,3.8-5.7,6.9-7.3c2-1,4.4-1.7,6.8-1.7c8.3,0,15,6.7,15,15c0,2.6-0.7,5.1-1.8,7.2c-1.6,3-4.3,5.4-7.5,6.7
		C134.9,580.6,133,581,131,581z M306,656c-6.7,0-12.3-4.4-14.3-10.4c-0.5-1.4-0.7-3-0.7-4.6c0-1.9,0.4-3.7,1-5.4
		c2.2-5.6,7.6-9.6,14-9.6s11.8,4,14,9.6c0.7,1.7,1,3.5,1,5.4c0,1.6-0.3,3.1-0.7,4.6C318.3,651.6,312.7,656,306,656z M496,566
		c0,8.3-6.7,15-15,15c-2,0-3.9-0.4-5.7-1.1c-3.2-1.3-5.9-3.7-7.5-6.7c-1.2-2.1-1.8-4.6-1.8-7.2c0-8.3,6.7-15,15-15
		c2.5,0,4.8,0.6,6.8,1.7c3.1,1.6,5.5,4.1,6.9,7.3C495.5,561.8,496,563.8,496,566z M494.3,544.8c-3.8-2.4-8.4-3.8-13.3-3.8
		c-13.8,0-25,11.2-25,25c0,5.1,1.6,9.9,4.2,13.9c-35.9,30.1-80.7,50-130,54.9C327.5,624,317.7,616,306,616s-21.5,8-24.2,18.8
		c-49.2-4.9-94.1-24.8-130-54.9c2.7-4,4.2-8.7,4.2-13.9c0-13.8-11.2-25-25-25c-4.9,0-9.4,1.4-13.3,3.8C90,509.9,71.9,467,67.2,420.2
		c10.8-2.8,18.7-12.6,18.7-24.2s-7.9-21.4-18.7-24.2c4.6-46.1,22.3-88.3,49.2-123c3.4,1.8,7.3,2.8,11.4,2.8c13.8,0,25-11.2,25-25
		c0-4.6-1.2-8.8-3.4-12.5c36.3-31.2,82-51.8,132.3-56.9C284.5,168,294.3,176,306,176s21.5-8,24.2-18.8
		c49.4,4.9,94.3,24.9,130.2,55.1c-2.8,4-4.5,9-4.5,14.2c0,13.8,11.2,25,25,25c5,0,9.7-1.5,13.6-4c27.5,34.9,45.5,77.6,50.2,124.2
		C534,374.5,526,384.3,526,396s8,21.5,18.8,24.2C540.1,467,522,509.9,494.3,544.8z M555.6,410.3c-1.4,0.5-3,0.7-4.6,0.7
		c-1.9,0-3.7-0.4-5.4-1c-5.6-2.2-9.6-7.6-9.6-14s4-11.8,9.6-14c1.7-0.7,3.5-1,5.4-1c1.6,0,3.1,0.3,4.6,0.7c6,1.9,10.4,7.6,10.4,14.3
		C566,402.7,561.6,408.3,555.6,410.3z"/>
	
		<animateTransform  type="rotate" fill="remove" restart="always" calcMode="linear" to="360 306 396" repeatCount="indefinite" additive="replace" accumulate="none" begin="0s" dur="40" attributeName="transform" from="0 306 396">
		</animateTransform>
</g>
<g>
	<defs>
		<ellipse id="SVGID_1_" cx="306" cy="396.3" rx="103.5" ry="104"/>
	</defs>
	<clipPath id="SVGID_2_">
		<use xlink:href="#SVGID_1_"  style="overflow:visible;"/>
	</clipPath>
	<g class="st3">
		<defs>
			<circle id="SVGID_3_" cx="305.7" cy="395.8" r="106.6"/>
		</defs>
		<clipPath id="SVGID_4_">
			<use xlink:href="#SVGID_3_"  style="overflow:visible;"/>
		</clipPath>
		<circle id="XMLID_42_" class="st4" cx="305.7" cy="398.2" r="90">
		
			<animate  fill="remove" restart="always" calcMode="linear" to="125" repeatCount="indefinite" additive="replace" accumulate="none" begin="0s" dur="1.3s" attributeName="r" from="80">
			</animate>
		
			<animate  fill="remove" restart="always" calcMode="linear" to="0" repeatCount="indefinite" additive="replace" accumulate="none" begin="0s" dur="1.3s" attributeName="opacity" from="1">
			</animate>
		</circle>
		<circle class="st5" cx="305.7" cy="398.2" r="90">
		
			<animate  fill="remove" restart="always" calcMode="linear" to="105" repeatCount="indefinite" additive="replace" accumulate="none" begin="0s" dur="1.3s" attributeName="r" from="80">
			</animate>
		
			<animate  fill="remove" restart="always" calcMode="linear" to="0" repeatCount="indefinite" additive="replace" accumulate="none" begin="0s" dur="1.3s" attributeName="opacity" from="1">
			</animate>
		</circle>
		<circle class="st4" cx="305.7" cy="398.2" r="90"/>
		<g id="XMLID_37_" class="st6">
			<path id="XMLID_41_" class="st2" d="M319.6,562.6c-2.2-5.5-7.6-9.4-13.9-9.4s-11.7,3.9-13.9,9.4c-0.7,1.7-1.1,3.6-1.1,5.6
				c0,1.5,0.2,3,0.7,4.4c1.9,6.1,7.6,10.6,14.3,10.6s12.5-4.5,14.3-10.6c0.4-1.4,0.7-2.9,0.7-4.4
				C320.7,566.2,320.3,564.3,319.6,562.6z"/>
			<path id="XMLID_40_" class="st2" d="M291.6,233.8c2.1,5.8,7.6,10,14.1,10s12-4.2,14.1-10c0.6-1.6,0.9-3.3,0.9-5
				c0-1.8-0.3-3.4-0.9-5c-2.1-5.8-7.6-10-14.1-10s-12.1,4.2-14.1,10c-0.6,1.6-0.9,3.2-0.9,5C290.7,230.5,291,232.2,291.6,233.8z"/>
			<path id="XMLID_39_" class="st2" d="M329.9,235c-2.8,10.8-12.6,18.8-24.2,18.8s-21.5-8-24.2-18.8
				c-79.7,11.7-140.8,80.3-140.8,163.2c0,83,61.2,151.6,140.9,163.2c2.9-10.5,12.6-18.2,24.1-18.2s21.1,7.7,24.1,18.2
				c79.7-11.6,140.9-80.2,140.9-163.2C470.7,315.3,409.6,246.7,329.9,235z"/>
			<path id="XMLID_38_" class="st0" d="M330.4,224.9c-1.8-12-12.2-21.2-24.7-21.2s-22.9,9.2-24.7,21.2
				c-84.9,12-150.3,85-150.3,173.3c0,88.2,65.3,161.2,150.2,173.2c1.6,12.3,12.1,21.8,24.8,21.8s23.2-9.5,24.8-21.8
				c84.9-12,150.2-85,150.2-173.2C480.7,309.9,415.4,237,330.4,224.9z M305.7,213.8c6.5,0,12.1,4.2,14.1,10c0.6,1.6,0.9,3.2,0.9,5
				s-0.3,3.5-0.9,5c-2.1,5.8-7.6,10-14.1,10s-12-4.2-14.1-10c-0.6-1.6-0.9-3.3-0.9-5c0-1.8,0.3-3.4,0.9-5
				C293.6,218,299.2,213.8,305.7,213.8z M305.7,583.2c-6.7,0-12.5-4.5-14.3-10.6c-0.4-1.4-0.7-2.9-0.7-4.4c0-2,0.4-3.9,1.1-5.6
				c2.2-5.5,7.6-9.4,13.9-9.4s11.7,3.9,13.9,9.4c0.7,1.7,1.1,3.6,1.1,5.6c0,1.5-0.2,3-0.7,4.4C318.2,578.7,312.4,583.2,305.7,583.2z
				 M329.8,561.4c-2.9-10.5-12.6-18.2-24.1-18.2s-21.1,7.7-24.1,18.2c-79.7-11.6-140.9-80.2-140.9-163.2
				c0-82.9,61.1-151.5,140.8-163.2c2.8,10.8,12.6,18.8,24.2,18.8s21.5-8,24.2-18.8c79.7,11.7,140.8,80.3,140.8,163.2
				C470.7,481.2,409.5,549.8,329.8,561.4z"/>
			
				<animateTransform  type="rotate" fill="remove" restart="always" calcMode="linear" to="0 306 396" repeatCount="indefinite" additive="replace" accumulate="none" begin="0s" dur="15" attributeName="transform" from="360 306 396">
				</animateTransform>
		</g>
		<g id="XMLID_26_" class="st6">
			<path id="XMLID_36_" class="st2" d="M122.7,243c1.5,0.5,3.2,0.8,4.9,0.8c8.3,0,15-6.7,15-15c0-2-0.4-3.8-1.1-5.6
				c-1.3-3.2-3.6-5.9-6.6-7.5c-2.2-1.2-4.7-1.9-7.3-1.9c-8.3,0-15,6.7-15,15c0,2.9,0.9,5.7,2.3,8C116.7,239.6,119.4,241.8,122.7,243
				z"/>
			<path id="XMLID_35_" class="st2" d="M66.1,412.1c5.6-2.2,9.5-7.6,9.5-13.9s-3.9-11.7-9.5-13.9c-1.7-0.7-3.6-1.1-5.5-1.1
				c-1.6,0-3.1,0.2-4.5,0.7c-6.1,1.9-10.5,7.6-10.5,14.3s4.4,12.4,10.5,14.3c1.4,0.4,2.9,0.7,4.5,0.7
				C62.6,413.2,64.4,412.8,66.1,412.1z"/>
			<path id="XMLID_34_" class="st2" d="M143.9,575.4c1.2-2.1,1.8-4.6,1.8-7.2c0-8.3-6.7-15-15-15c-2.5,0-4.8,0.6-6.8,1.7
				c-3.1,1.6-5.5,4.1-6.9,7.3c-0.8,1.8-1.3,3.9-1.3,6c0,8.3,6.7,15,15,15c2,0,3.9-0.4,5.7-1.1C139.6,580.8,142.2,578.4,143.9,575.4z
				"/>
			<path id="XMLID_33_" class="st2" d="M467.8,221.2c-1.3,2.3-2.1,4.9-2.1,7.7c0.1,8.3,6.9,14.9,15.1,14.9c2.5,0,4.9-0.7,7-1.8
				c3-1.6,5.4-4.3,6.7-7.5c0.7-1.8,1.1-3.7,1.1-5.8c-0.1-8.3-6.9-14.9-15.1-14.9c-1.8,0-3.5,0.4-5.1,0.9
				C472.2,215.9,469.5,218.2,467.8,221.2z"/>
			<path id="XMLID_32_" class="st2" d="M291.7,158.6c2.2,5.6,7.6,9.6,14,9.6s11.8-4,14-9.6c0.7-1.7,1-3.5,1-5.4
				c0-1.6-0.3-3.1-0.7-4.6c-1.9-6-7.6-10.4-14.3-10.4s-12.3,4.4-14.3,10.4c-0.5,1.4-0.7,3-0.7,4.6
				C290.7,155.1,291.1,156.9,291.7,158.6z"/>
			<path id="XMLID_31_" class="st2" d="M319.7,637.8c-2.2-5.6-7.6-9.6-14-9.6s-11.8,4-14,9.6c-0.7,1.7-1,3.5-1,5.4
				c0,1.6,0.3,3.1,0.7,4.6c1.9,6,7.6,10.4,14.3,10.4s12.3-4.4,14.3-10.4c0.5-1.4,0.7-3,0.7-4.6C320.7,641.3,320.3,639.5,319.7,637.8
				z"/>
			<path id="XMLID_30_" class="st2" d="M525.7,398.2c0-11.7,8-21.5,18.8-24.2c-4.7-46.6-22.7-89.3-50.2-124.2c-3.9,2.5-8.6,4-13.6,4
				c-13.8,0-25-11.2-25-25c0-5.3,1.7-10.2,4.5-14.2c-35.9-30.3-80.9-50.2-130.2-55.1c-2.8,10.7-12.6,18.7-24.3,18.7
				s-21.5-8-24.2-18.8c-50.3,5-96,25.6-132.3,56.9c2.1,3.7,3.4,8,3.4,12.5c0,13.8-11.2,25-25,25c-4.1,0-8-1-11.4-2.8
				C89.3,285.7,71.6,327.9,67,374c10.8,2.8,18.7,12.6,18.7,24.2s-7.9,21.4-18.7,24.2c4.7,46.8,22.8,89.7,50.5,124.6
				c3.8-2.4,8.4-3.8,13.3-3.8c13.8,0,25,11.2,25,25c0,5.1-1.6,9.9-4.2,13.9c35.9,30.1,80.7,50,130,54.9
				c2.6-10.8,12.4-18.8,24.1-18.8s21.5,8,24.2,18.8c49.2-4.9,94.1-24.8,130-54.9c-2.7-4-4.2-8.7-4.2-13.9c0-13.8,11.2-25,25-25
				c4.9,0,9.4,1.4,13.3,3.8c27.7-35,45.8-77.8,50.5-124.6C533.7,419.7,525.7,409.9,525.7,398.2z"/>
			<path id="XMLID_29_" class="st2" d="M555.3,383.9c-1.4-0.5-3-0.7-4.6-0.7c-1.9,0-3.7,0.4-5.4,1c-5.6,2.2-9.6,7.6-9.6,14
				s4,11.8,9.6,14c1.7,0.7,3.5,1,5.4,1c1.6,0,3.1-0.3,4.6-0.7c6-1.9,10.4-7.6,10.4-14.3C565.7,391.5,561.3,385.9,555.3,383.9z"/>
			<path id="XMLID_28_" class="st2" d="M487.5,554.9c-2-1-4.4-1.7-6.8-1.7c-8.3,0-15,6.7-15,15c0,2.6,0.7,5.1,1.8,7.2
				c1.6,3,4.3,5.4,7.5,6.7c1.7,0.7,3.7,1.1,5.7,1.1c8.3,0,15-6.7,15-15c0-2.2-0.5-4.2-1.3-6C493,559,490.6,556.4,487.5,554.9z"/>
			<path id="XMLID_27_" class="st0" d="M554.5,373.5c-4.8-49.2-23.9-94.1-53-130.8c2.7-4,4.2-8.8,4.2-13.9c0-13.8-11.2-25-25-25
				c-4.9,0-9.4,1.4-13.3,3.8c-37.7-32-85-53.1-137-58.2c-1.8-12-12.2-21.2-24.7-21.2s-22.9,9.2-24.7,21.2
				c-52.7,5.2-100.5,26.7-138.4,59.4c-4.2-3.1-9.4-5-15-5c-13.8,0-25,11.2-25,25c0,6.1,2.2,11.7,5.8,16
				C80.1,281,61.7,325.2,56.9,373.5c-12.1,1.8-21.3,12.2-21.3,24.7s9.3,22.9,21.3,24.7c4.8,49.3,24,94.4,53.2,131
				c-2.8,4-4.5,8.9-4.5,14.2c0,13.8,11.2,25,25,25c5,0,9.7-1.5,13.6-4.1c37.6,31.8,84.8,52.8,136.6,57.8c1.8,12,12.2,21.2,24.7,21.2
				s22.9-9.2,24.7-21.2c51.8-5.1,99-26,136.6-57.8c3.9,2.6,8.6,4.1,13.6,4.1c13.8,0,25-11.2,25-25c0-5.3-1.7-10.2-4.5-14.2
				c29.3-36.7,48.4-81.8,53.2-131c12-1.8,21.2-12.2,21.2-24.7S566.5,375.3,554.5,373.5z M480.6,213.8c8.3-0.1,15.1,6.6,15.1,14.9
				c0,2.1-0.4,4-1.1,5.8c-1.3,3.2-3.7,5.9-6.7,7.5c-2.1,1.1-4.5,1.8-7,1.8c-8.3,0.1-15.1-6.6-15.1-14.9c0-2.8,0.7-5.5,2.1-7.7
				c1.7-3,4.5-5.3,7.7-6.5C477.1,214.1,478.8,213.8,480.6,213.8z M305.7,138.2c6.7,0,12.3,4.4,14.3,10.4c0.5,1.4,0.7,3,0.7,4.6
				c0,1.9-0.4,3.7-1,5.4c-2.2,5.6-7.6,9.6-14,9.6s-11.8-4-14-9.6c-0.7-1.7-1-3.5-1-5.4c0-1.6,0.3-3.1,0.7-4.6
				C293.4,142.6,299,138.2,305.7,138.2z M112.5,228.8c0-8.3,6.7-15,15-15c2.7,0,5.2,0.7,7.3,1.9c3,1.7,5.3,4.3,6.6,7.5
				c0.7,1.7,1.1,3.6,1.1,5.6c0,8.3-6.7,15-15,15c-1.7,0-3.3-0.3-4.9-0.8c-3.3-1.1-6-3.3-7.8-6.2
				C113.4,234.4,112.5,231.7,112.5,228.8z M56.1,412.5c-6.1-1.9-10.5-7.6-10.5-14.3s4.4-12.4,10.5-14.3c1.4-0.4,2.9-0.7,4.5-0.7
				c1.9,0,3.8,0.4,5.5,1.1c5.6,2.2,9.5,7.6,9.5,13.9s-3.9,11.7-9.5,13.9c-1.7,0.7-3.6,1.1-5.5,1.1C59,413.2,57.5,413,56.1,412.5z
				 M130.7,583.2c-8.3,0-15-6.7-15-15c0-2.2,0.5-4.2,1.3-6c1.4-3.2,3.8-5.7,6.9-7.3c2-1,4.4-1.7,6.8-1.7c8.3,0,15,6.7,15,15
				c0,2.6-0.7,5.1-1.8,7.2c-1.6,3-4.3,5.4-7.5,6.7C134.6,582.8,132.7,583.2,130.7,583.2z M305.7,658.2c-6.7,0-12.3-4.4-14.3-10.4
				c-0.5-1.4-0.7-3-0.7-4.6c0-1.9,0.4-3.7,1-5.4c2.2-5.6,7.6-9.6,14-9.6s11.8,4,14,9.6c0.7,1.7,1,3.5,1,5.4c0,1.6-0.3,3.1-0.7,4.6
				C318,653.8,312.4,658.2,305.7,658.2z M495.7,568.2c0,8.3-6.7,15-15,15c-2,0-3.9-0.4-5.7-1.1c-3.2-1.3-5.9-3.7-7.5-6.7
				c-1.2-2.1-1.8-4.6-1.8-7.2c0-8.3,6.7-15,15-15c2.5,0,4.8,0.6,6.8,1.7c3.1,1.6,5.5,4.1,6.9,7.3C495.2,564,495.7,566,495.7,568.2z
				 M494,547c-3.8-2.4-8.4-3.8-13.3-3.8c-13.8,0-25,11.2-25,25c0,5.1,1.6,9.9,4.2,13.9c-35.9,30.1-80.7,50-130,54.9
				c-2.7-10.8-12.5-18.8-24.2-18.8s-21.5,8-24.2,18.8c-49.2-4.9-94.1-24.8-130-54.9c2.7-4,4.2-8.7,4.2-13.9c0-13.8-11.2-25-25-25
				c-4.9,0-9.4,1.4-13.3,3.8c-27.7-34.9-45.8-77.8-50.5-124.6c10.8-2.8,18.7-12.6,18.7-24.2s-7.9-21.4-18.7-24.2
				c4.6-46.1,22.3-88.3,49.2-123c3.4,1.8,7.3,2.8,11.4,2.8c13.8,0,25-11.2,25-25c0-4.6-1.2-8.8-3.4-12.5
				c36.3-31.2,82-51.8,132.3-56.9c2.8,10.8,12.6,18.8,24.3,18.8s21.5-8,24.2-18.8c49.4,4.9,94.3,24.9,130.2,55.1
				c-2.8,4-4.5,9-4.5,14.2c0,13.8,11.2,25,25,25c5,0,9.7-1.5,13.6-4c27.5,34.9,45.5,77.6,50.2,124.2c-10.7,2.8-18.7,12.6-18.7,24.3
				s8,21.5,18.8,24.2C539.8,469.2,521.7,512.1,494,547z M555.3,412.5c-1.4,0.5-3,0.7-4.6,0.7c-1.9,0-3.7-0.4-5.4-1
				c-5.6-2.2-9.6-7.6-9.6-14s4-11.8,9.6-14c1.7-0.7,3.5-1,5.4-1c1.6,0,3.1,0.3,4.6,0.7c6,1.9,10.4,7.6,10.4,14.3
				C565.7,404.9,561.3,410.5,555.3,412.5z"/>
			
				<animateTransform  type="rotate" fill="remove" restart="always" calcMode="linear" to="360 306 396" repeatCount="indefinite" additive="replace" accumulate="none" begin="0s" dur="40" attributeName="transform" from="0 306 396">
				</animateTransform>
		</g>
		<g transform="matrix(1 0 0 1 0 0)" class="st6">
			
				<image style="overflow:visible;" width="1080" height="1080" :href="getClassIcon()" transform="matrix(0.1969 0 0 0.2024 199.1006 289.1934)">
			</image>
			
		</g>
	</g>
</g>
</svg>

